# xmcd CD database file
#
# Track frame offsets:
#	150
#	18856
#	34494
#	54704
#	64000
#	74366
#	88585
#	105810
#	121710
#	132538
#	150564
#	168598
#	184792
#	201394
#	217310
#	237885
#	256019
#	272280
#	284107
#	297004
#	312301
#	329590
#
# Disc length: 4597 seconds
#
# Revision: 0
# Processed by: cddbd v1.5.2PL0 Copyright (c) Steve Scherf et al.
# Submitted via: jetAudio 7
#
DISCID=4b11f316
DTITLE=MIXED OLDIES
DYEAR=1900
DGENRE=Country
TTITLE0=Alcohol
TTITLE1=Anthony Hamilton- Mama Knew
TTITLE2=Only In America
TTITLE3=Kiss An Angel Goodmorning
TTITLE4=Heartland
TTITLE5=Gunpowder and Lead
TTITLE6=Footloose
TTITLE7=Cross My Heart
TTITLE8=Buck Owens, Roy Clark, Grandpa Jones, Kenney Price
TTITLE9=Don't Forget To Remember Me
TTITLE10=Chicks Dig It
TTITLE11=C
TTITLE12=Beautiful Mess
TTITLE13=All-American Girl
TTITLE14=Wasted
TTITLE15=The World
TTITLE16=Something More
TTITLE17=Skip A Rope
TTITLE18=Size Matters
TTITLE19=Good Intentions
TTITLE20=Landslide
TTITLE21=Laughed Until We Cried
EXTD=
EXTT0=
EXTT1=
EXTT2=
EXTT3=
EXTT4=
EXTT5=
EXTT6=
EXTT7=
EXTT8=
EXTT9=
EXTT10=
EXTT11=
EXTT12=
EXTT13=
EXTT14=
EXTT15=
EXTT16=
EXTT17=
EXTT18=
EXTT19=
EXTT20=
EXTT21=
PLAYORDER=
